<svg xmlns="http://www.w3.org/2000/svg" width="1040" height="300" viewBox="0 0 1040 300" role="img" aria-labelledby="title desc">
  <title id="title">Entroly</title>
  <desc id="desc">Animated neon-green pixel-built Entroly wordmark on a dark HUD panel: layered glow, glossy sheen, a light sweep across the letters, and a subtle terminal flicker.</desc>

  <defs>
    <!-- ── Glyphs: 18px blocks on a 20px pitch ─────────────────────────── -->
    <path id="E" d="M0 0h18v18h-18z M20 0h18v18h-18z M40 0h18v18h-18z M60 0h18v18h-18z M80 0h18v18h-18z M0 20h18v18h-18z M0 40h18v18h-18z M0 60h18v18h-18z M20 60h18v18h-18z M40 60h18v18h-18z M60 60h18v18h-18z M0 80h18v18h-18z M0 100h18v18h-18z M0 120h18v18h-18z M20 120h18v18h-18z M40 120h18v18h-18z M60 120h18v18h-18z M80 120h18v18h-18z"/>
    <path id="N" d="M0 0h18v18h-18z M80 0h18v18h-18z M0 20h18v18h-18z M20 20h18v18h-18z M80 20h18v18h-18z M0 40h18v18h-18z M40 40h18v18h-18z M80 40h18v18h-18z M0 60h18v18h-18z M60 60h18v18h-18z M80 60h18v18h-18z M0 80h18v18h-18z M80 80h18v18h-18z M0 100h18v18h-18z M80 100h18v18h-18z M0 120h18v18h-18z M80 120h18v18h-18z"/>
    <path id="T" d="M0 0h18v18h-18z M20 0h18v18h-18z M40 0h18v18h-18z M60 0h18v18h-18z M80 0h18v18h-18z M40 20h18v18h-18z M40 40h18v18h-18z M40 60h18v18h-18z M40 80h18v18h-18z M40 100h18v18h-18z M40 120h18v18h-18z"/>
    <path id="R" d="M0 0h18v18h-18z M20 0h18v18h-18z M40 0h18v18h-18z M60 0h18v18h-18z M0 20h18v18h-18z M80 20h18v18h-18z M0 40h18v18h-18z M80 40h18v18h-18z M0 60h18v18h-18z M20 60h18v18h-18z M40 60h18v18h-18z M60 60h18v18h-18z M0 80h18v18h-18z M40 80h18v18h-18z M0 100h18v18h-18z M60 100h18v18h-18z M0 120h18v18h-18z M80 120h18v18h-18z"/>
    <path id="O" d="M20 0h18v18h-18z M40 0h18v18h-18z M60 0h18v18h-18z M0 20h18v18h-18z M80 20h18v18h-18z M0 40h18v18h-18z M80 40h18v18h-18z M0 60h18v18h-18z M80 60h18v18h-18z M0 80h18v18h-18z M80 80h18v18h-18z M0 100h18v18h-18z M80 100h18v18h-18z M20 120h18v18h-18z M40 120h18v18h-18z M60 120h18v18h-18z"/>
    <path id="L" d="M0 0h18v18h-18z M0 20h18v18h-18z M0 40h18v18h-18z M0 60h18v18h-18z M0 80h18v18h-18z M0 100h18v18h-18z M0 120h18v18h-18z M20 120h18v18h-18z M40 120h18v18h-18z M60 120h18v18h-18z M80 120h18v18h-18z"/>
    <path id="Y" d="M0 0h18v18h-18z M80 0h18v18h-18z M0 20h18v18h-18z M80 20h18v18h-18z M20 40h18v18h-18z M60 40h18v18h-18z M40 60h18v18h-18z M40 80h18v18h-18z M40 100h18v18h-18z M40 120h18v18h-18z"/>

    <g id="word" transform="translate(105 92)">
      <use href="#E" x="0"/>
      <use href="#N" x="122"/>
      <use href="#T" x="244"/>
      <use href="#R" x="366"/>
      <use href="#O" x="488"/>
      <use href="#L" x="610"/>
      <use href="#Y" x="732"/>
    </g>

    <!-- ── Paints ───────────────────────────────────────────────────────── -->
    <linearGradient id="mainGreen" x1="0" y1="92" x2="0" y2="230" gradientUnits="userSpaceOnUse">
      <stop offset="0" stop-color="#eaffe6"/>
      <stop offset="0.14" stop-color="#9bff86"/>
      <stop offset="0.50" stop-color="#3dff1a"/>
      <stop offset="0.82" stop-color="#1fbf3f"/>
      <stop offset="1" stop-color="#0e7a34"/>
    </linearGradient>
    <linearGradient id="sheen" x1="0" y1="92" x2="0" y2="230" gradientUnits="userSpaceOnUse">
      <stop offset="0" stop-color="#ffffff" stop-opacity="0.62"/>
      <stop offset="0.30" stop-color="#ffffff" stop-opacity="0"/>
    </linearGradient>
    <linearGradient id="panel" x1="0" y1="0" x2="1" y2="1">
      <stop offset="0" stop-color="#0f1a23"/>
      <stop offset="0.55" stop-color="#0a1118"/>
      <stop offset="1" stop-color="#06120d"/>
    </linearGradient>
    <radialGradient id="wordGlow" cx="50%" cy="50%" r="50%">
      <stop offset="0" stop-color="#39ff14" stop-opacity="0.30"/>
      <stop offset="0.55" stop-color="#19b83f" stop-opacity="0.08"/>
      <stop offset="1" stop-color="#39ff14" stop-opacity="0"/>
    </radialGradient>
    <radialGradient id="floorGlow" cx="50%" cy="50%" r="50%">
      <stop offset="0" stop-color="#39ff14" stop-opacity="0.34"/>
      <stop offset="1" stop-color="#39ff14" stop-opacity="0"/>
    </radialGradient>
    <radialGradient id="vignette" cx="50%" cy="46%" r="72%">
      <stop offset="0.52" stop-color="#000000" stop-opacity="0"/>
      <stop offset="1" stop-color="#000000" stop-opacity="0.55"/>
    </radialGradient>
    <linearGradient id="sweep" x1="0" y1="0" x2="1" y2="0">
      <stop offset="0.40" stop-color="#ffffff" stop-opacity="0"/>
      <stop offset="0.50" stop-color="#ffffff" stop-opacity="0.85"/>
      <stop offset="0.60" stop-color="#ffffff" stop-opacity="0"/>
    </linearGradient>

    <pattern id="grid" width="22" height="22" patternUnits="userSpaceOnUse">
      <path d="M22 0H0V22" fill="none" stroke="#0f3120" stroke-width="1" opacity="0.5"/>
    </pattern>

    <!-- Layered neon: wide soft halo + tight bright core (glow color from alpha) -->
    <filter id="neon" x="-25%" y="-70%" width="150%" height="240%">
      <feGaussianBlur in="SourceAlpha" stdDeviation="8" result="b1"/>
      <feColorMatrix in="b1" type="matrix" values="0 0 0 0 0.18  0 0 0 0 1  0 0 0 0 0.22  0 0 0 0.55 0" result="halo"/>
      <feGaussianBlur in="SourceAlpha" stdDeviation="2.4" result="b2"/>
      <feColorMatrix in="b2" type="matrix" values="0 0 0 0 0.62  0 0 0 0 1  0 0 0 0 0.55  0 0 0 0.95 0" result="core"/>
      <feMerge>
        <feMergeNode in="halo"/>
        <feMergeNode in="core"/>
        <feMergeNode in="SourceGraphic"/>
      </feMerge>
    </filter>

    <clipPath id="wordClip"><use href="#word"/></clipPath>
    <clipPath id="lowerBand"><rect x="0" y="176" width="1040" height="62"/></clipPath>
    <clipPath id="glitchTop"><rect x="0" y="92" width="1040" height="44"/></clipPath>
    <clipPath id="glitchLow"><rect x="0" y="186" width="1040" height="44"/></clipPath>
  </defs>

  <!-- ── Stage ───────────────────────────────────────────────────────────── -->
  <rect width="1040" height="300" fill="#060a0e"/>
  <rect x="24" y="24" width="992" height="252" rx="12" fill="url(#panel)"/>
  <rect x="24" y="24" width="992" height="252" rx="12" fill="url(#grid)" opacity="0.6"/>

  <!-- depth glows -->
  <ellipse cx="520" cy="158" rx="450" ry="132" fill="url(#wordGlow)">
    <animate attributeName="rx" dur="6s" repeatCount="indefinite" values="450;470;450" keyTimes="0;.5;1"/>
    <animate attributeName="opacity" dur="6s" repeatCount="indefinite" values="0.85;1;0.85" keyTimes="0;.5;1"/>
  </ellipse>
  <rect x="24" y="24" width="992" height="252" rx="12" fill="url(#vignette)"/>

  <!-- animated panel border -->
  <rect x="24" y="24" width="992" height="252" rx="12" fill="none" stroke="#2c5a3c" stroke-width="1.25">
    <animate attributeName="stroke" dur="6s" repeatCount="indefinite" values="#234b32;#2dd4bf;#234b32;#86efac;#234b32" keyTimes="0;.2;.4;.72;1"/>
  </rect>

  <!-- ── HUD corner brackets (clean framing) ─────────────────────────────── -->
  <g fill="none" stroke="#4ef08a" stroke-width="3" opacity="0.9" stroke-linecap="square">
    <path d="M40 66V40h26"/>
    <path d="M1000 40h-26 M1000 40v26"/>
    <path d="M40 234v26h26"/>
    <path d="M1000 260h-26 M1000 260v-26"/>
  </g>

  <!-- ── Top status strip + LED ──────────────────────────────────────────── -->
  <g opacity="0.95">
    <rect x="78" y="43" width="96" height="3" rx="1.5" fill="#39ff14"/>
    <rect x="182" y="43" width="34" height="3" rx="1.5" fill="#22d3ee"/>
    <rect x="224" y="43" width="18" height="3" rx="1.5" fill="#f472b6"/>
    <rect x="884" y="43" width="74" height="3" rx="1.5" fill="#1f7a3a"/>
    <circle cx="976" cy="44.5" r="5" fill="#39ff14">
      <animate attributeName="opacity" dur="2.6s" repeatCount="indefinite" values="1;1;.25;1;.5;1;1" keyTimes="0;.6;.66;.72;.78;.84;1"/>
    </circle>
  </g>

  <!-- ── Floor under-glow (grounds the word) ─────────────────────────────── -->
  <ellipse cx="520" cy="236" rx="360" ry="20" fill="url(#floorGlow)" opacity="0.6"/>

  <!-- ── 3D extrude shadow (lower-right) ─────────────────────────────────── -->
  <use href="#word" transform="translate(14 18)" fill="#041a0c" opacity="0.92"/>
  <use href="#word" transform="translate(9 12)" fill="#063e1a" opacity="0.8"/>
  <use href="#word" transform="translate(5 6)" fill="#0d6b2f" opacity="0.6"/>

  <!-- ── Subtle chromatic glitch (never fully gone) ──────────────────────── -->
  <g opacity="0">
    <animate attributeName="opacity" dur="5.6s" repeatCount="indefinite" values="0;0;.6;0;.35;0;0" keyTimes="0;.7;.715;.74;.77;.8;1"/>
    <use href="#word" transform="translate(-7 1)" fill="#22d3ee" clip-path="url(#glitchTop)"/>
    <use href="#word" transform="translate(8 -1)" fill="#f472b6" clip-path="url(#glitchLow)"/>
  </g>

  <!-- ── Main wordmark ───────────────────────────────────────────────────── -->
  <g>
    <animate attributeName="opacity" dur="5.6s" repeatCount="indefinite" values="1;1;.78;1;.62;1;1;.86;1" keyTimes="0;.7;.715;.74;.77;.8;.86;.9;1"/>
    <use href="#word" fill="url(#mainGreen)" stroke="#d9ffd8" stroke-width="1.1" filter="url(#neon)"/>
    <use href="#word" fill="#0a5a26" opacity="0.4" clip-path="url(#lowerBand)"/>
    <use href="#word" fill="url(#sheen)"/>
  </g>

  <!-- light sweep, clipped to the letters -->
  <g clip-path="url(#wordClip)">
    <g opacity="0.9">
      <animateTransform attributeName="transform" type="translate" dur="5.2s" repeatCount="indefinite" values="-1040 0;1040 0" keyTimes="0;1"/>
      <rect x="0" y="80" width="1040" height="160" fill="url(#sweep)"/>
    </g>
  </g>

  <!-- crisp dark keyline for definition -->
  <use href="#word" fill="none" stroke="#03190c" stroke-width="1" opacity="0.5"/>

  <!-- ── Baseline + scan accent ──────────────────────────────────────────── -->
  <rect x="96" y="258" width="848" height="1" fill="#39ff14" opacity="0.28"/>
  <rect x="96" y="261" width="220" height="2.5" rx="1.25" fill="#39ff14" opacity="0.8">
    <animate attributeName="width" dur="5.6s" repeatCount="indefinite" values="220;220;96;360;220;220" keyTimes="0;.7;.75;.84;.92;1"/>
    <animate attributeName="opacity" dur="5.6s" repeatCount="indefinite" values=".8;.8;.3;1;.8;.8" keyTimes="0;.7;.75;.84;.92;1"/>
  </rect>
  <rect x="320" y="257" width="10" height="9" rx="1" fill="#bbf7d0">
    <animate attributeName="opacity" dur="1.1s" repeatCount="indefinite" values="1;1;0;0;1" keyTimes="0;.48;.5;.92;1"/>
  </rect>
</svg>
