<svg xmlns="http://www.w3.org/2000/svg" width="160" height="160" viewBox="0 0 160 160" role="img" aria-labelledby="t d">
  <title id="t">Entroly</title>
  <desc id="d">Entroly mark: a glowing stack of green coins with a sparkle — money saved.</desc>
  <defs>
    <linearGradient id="g" x1="0" y1="0" x2="0" y2="1">
      <stop offset="0" stop-color="#eaffe6"/><stop offset="0.30" stop-color="#7dff66"/><stop offset="0.7" stop-color="#3dff1a"/><stop offset="1" stop-color="#1fbf3f"/>
    </linearGradient>
    <linearGradient id="chip" x1="0" y1="0" x2="1" y2="1">
      <stop offset="0" stop-color="#0e2018"/><stop offset="1" stop-color="#05100b"/>
    </linearGradient>
    <radialGradient id="bg" cx="50%" cy="50%" r="60%">
      <stop offset="0" stop-color="#39ff14" stop-opacity="0.24"/><stop offset="1" stop-color="#39ff14" stop-opacity="0"/>
    </radialGradient>
    <filter id="neon" x="-40%" y="-40%" width="180%" height="180%">
      <feGaussianBlur in="SourceAlpha" stdDeviation="3.6" result="b1"/>
      <feColorMatrix in="b1" type="matrix" values="0 0 0 0 0.18  0 0 0 0 1  0 0 0 0 0.22  0 0 0 0.6 0" result="halo"/>
      <feGaussianBlur in="SourceAlpha" stdDeviation="1.3" result="b2"/>
      <feColorMatrix in="b2" type="matrix" values="0 0 0 0 0.62  0 0 0 0 1  0 0 0 0 0.55  0 0 0 0.95 0" result="core"/>
      <feMerge><feMergeNode in="halo"/><feMergeNode in="core"/><feMergeNode in="SourceGraphic"/></feMerge>
    </filter>
    <path id="spark" d="M0 -13 L3 -3 L13 0 L3 3 L0 13 L-3 3 L-13 0 L-3 -3 Z"/>
  </defs>

  <rect x="10" y="10" width="140" height="140" rx="34" fill="url(#chip)" stroke="#2f6a45" stroke-width="2.5"/>
  <rect x="10" y="10" width="140" height="140" rx="34" fill="url(#bg)"/>
  <g filter="url(#neon)">
    <ellipse cx="80" cy="110" rx="38" ry="10.5" fill="#0c5f29"/>
    <ellipse cx="80" cy="105" rx="38" ry="10.5" fill="url(#g)" stroke="#d9ffd8" stroke-width="1.4"/>
    <ellipse cx="80" cy="89"  rx="38" ry="10.5" fill="#0c5f29"/>
    <ellipse cx="80" cy="84"  rx="38" ry="10.5" fill="url(#g)" stroke="#d9ffd8" stroke-width="1.4"/>
    <ellipse cx="80" cy="68"  rx="38" ry="10.5" fill="#0c5f29"/>
    <ellipse cx="80" cy="63"  rx="38" ry="10.5" fill="url(#g)" stroke="#d9ffd8" stroke-width="1.4"/>
  </g>
  <use href="#spark" transform="translate(122 50)" fill="#eaffe6">
    <animate attributeName="opacity" dur="2.8s" repeatCount="indefinite" values="0.3;1;0.3;0.3" keyTimes="0;.2;.4;1"/>
  </use>
  <rect x="10" y="10" width="140" height="140" rx="34" fill="none" stroke="#bbf7d0" stroke-width="1" opacity="0.16"/>
</svg>
