<svg xmlns="http://www.w3.org/2000/svg" width="1200" height="630" viewBox="0 0 1200 630" role="img" aria-labelledby="title desc">
<title id="title">Keep your agent. Give it a Context OS.</title>
<desc id="desc">Answer-bearing paragraph retrieval under fixed one-of-N selection on a frozen SQuAD v2 validation subset.</desc>
<defs>
<linearGradient id="bg" x1="0" y1="0" x2="1" y2="1">
<stop offset="0" stop-color="#07111F"/><stop offset="0.58" stop-color="#0A1425"/><stop offset="1" stop-color="#14102A"/>
</linearGradient>
<linearGradient id="idea" x1="0" y1="0" x2="1" y2="0">
<stop offset="0" stop-color="#36E6C3"/><stop offset="1" stop-color="#B69CFF"/>
</linearGradient>
<radialGradient id="glow" cx="50%" cy="50%" r="50%">
<stop offset="0" stop-color="#704DFF" stop-opacity="0.32"/><stop offset="1" stop-color="#704DFF" stop-opacity="0"/>
</radialGradient>
<marker id="arrow" markerWidth="10" markerHeight="10" refX="8" refY="5" orient="auto">
<path d="M0 0L10 5L0 10Z" fill="#7188A8"/>
</marker>
</defs>
<rect width="1200" height="630" fill="url(#bg)"/>
<circle cx="685" cy="387" r="255" fill="url(#glow)"/>
<path d="M0 538 C250 476 355 610 610 534 S970 454 1200 520" fill="none" stroke="#36E6C3" stroke-opacity="0.10" stroke-width="2"/>
<rect x="36" y="34" width="1128" height="562" rx="30" fill="none" stroke="#263A54" stroke-width="2"/>
<style>
text{font-family:Inter,Segoe UI,Arial,sans-serif;fill:#F5F8FC}
.brand{font-size:19px;font-weight:800;letter-spacing:2.4px;fill:#36E6C3}
.meta{font-size:14px;font-weight:700;letter-spacing:1.1px;fill:#91A2B9}
.headline{font-size:48px;font-weight:850;letter-spacing:-1.2px}
.idea{font-size:58px;font-weight:900;letter-spacing:-1.8px;fill:url(#idea)}
.subhead{font-size:22px;fill:#C4D0E0}
.stage{font-size:14px;font-weight:800;letter-spacing:1.2px;fill:#91A2B9}
.big{font-size:46px;font-weight:900}
.label{font-size:18px;font-weight:750;fill:#C4D0E0}
.small{font-size:14px;fill:#8498B3}
.funnel{font-size:15px;font-weight:900;letter-spacing:1.4px;fill:#07111F}
.proof-label{font-size:14px;font-weight:800;letter-spacing:1px;fill:#C9B9FF}
.proof-value{font-size:38px;font-weight:900;fill:#B69CFF}
.fine{font-size:14px;fill:#91A2B9}
</style>
<circle cx="78" cy="76" r="18" fill="#36E6C3"/><path d="M69 76h18M78 67v18" stroke="#07111F" stroke-width="4" stroke-linecap="round"/>
<text x="108" y="83" class="brand">ENTROLY</text>
<text x="1120" y="80" class="meta" text-anchor="end">ONE MEASURED JOB | 300 QUESTIONS</text>
<text x="72" y="150" class="headline">Keep your agent.</text>
<text x="72" y="211" class="idea">Give it a Context OS.</text>
<text x="72" y="249" class="subhead">Read. Remember. Trust. Recover. Spend wisely. Learn from outcomes.</text>
<rect x="72" y="300" width="310" height="166" rx="22" fill="#0E1C2F" stroke="#2A4960"/>
<text x="98" y="334" class="stage">POSSIBLE CONTEXT</text>
<text x="98" y="389" class="big" fill="#F5F8FC">16</text>
<text x="153" y="386" class="label">possible passages</text>
<text x="98" y="430" class="small">One passage contains the needed evidence.</text>
<path d="M383 383 L493 383" stroke="#7188A8" stroke-width="3" marker-end="url(#arrow)"/>
<path d="M511 330 L663 330 L625 430 L549 430 Z" fill="url(#idea)"/>
<text x="587" y="387" class="funnel" text-anchor="middle">ENTROLY</text>
<path d="M664 383 L742 383" stroke="#7188A8" stroke-width="3" marker-end="url(#arrow)"/>
<rect x="762" y="300" width="358" height="196" rx="24" fill="#17172F" stroke="#8D72F4" stroke-width="2"/>
<text x="788" y="334" class="stage">MEASURED SELECTION</text>
<text x="788" y="383" class="big" fill="#36E6C3">1.02</text>
<text x="884" y="380" class="label">passages selected</text>
<line x1="788" y1="405" x2="1094" y2="405" stroke="#33375A"/>
<text x="788" y="435" class="proof-label">ANSWER-BEARING CLUE KEPT</text>
<text x="788" y="477" class="proof-value">298 / 300</text>
<text x="72" y="534" class="fine">Measured on 300 held-out retrieval questions. Generated answers and production savings were not measured.</text>
<text x="72" y="562" class="fine">Verify all 600 trial rows -> benchmarks/results/neural_evidence_frontier.json</text>
</svg>
